<svg width="1024" height="1024" viewBox="0 0 1024 1024" xmlns="http://www.w3.org/2000/svg">
    <!-- Fundo com gradiente -->
    <defs>
        <linearGradient id="appGradient" x1="0%" y1="0%" x2="100%" y2="100%">
            <stop offset="0%" style="stop-color:#0B5D8A;stop-opacity:1" />
            <stop offset="100%" style="stop-color:#075985;stop-opacity:1" />
        </linearGradient>
    </defs>
    
    <rect width="1024" height="1024" rx="180" fill="url(#appGradient)"/>
    
    <!-- Ondas decorativas -->
    <path d="M 100 512 Q 300 350, 512 512 T 924 512" 
          stroke="white" stroke-width="20" fill="none" opacity="0.2"/>
    <path d="M 100 614 Q 300 450, 512 614 T 924 614" 
          stroke="white" stroke-width="20" fill="none" opacity="0.15"/>
    
    <!-- Barco central grande -->
    <g transform="translate(512, 486) scale(1.3)">
        <path d="M -179 0 L -143 112 L 143 112 L 179 0 Z" fill="white"/>
        <rect x="-92" y="-61" width="184" height="61" rx="15" fill="white"/>
        <rect x="-61" y="-46" width="41" height="26" rx="5" fill="#0B5D8A" opacity="0.3"/>
        <rect x="20" y="-46" width="41" height="26" rx="5" fill="#0B5D8A" opacity="0.3"/>
        <line x1="0" y1="-61" x2="0" y2="-163" stroke="white" stroke-width="15"/>
        <path d="M 0 -163 L 77 -128 L 0 -92 Z" fill="#E8960C"/>
    </g>
    
    <!-- Detalhe dourado (sol) -->
    <circle cx="820" cy="204" r="61" fill="#E8960C" opacity="0.6"/>
</svg>
